solid OpenSCAD_Model
  facet normal -1 0 0
    outer loop
      vertex 0 0 0
      vertex 0 77.9 2.75
      vertex 0 77.9 0
    endloop
  endfacet
  facet normal -1 -0 0
    outer loop
      vertex 0 77.9 2.75
      vertex 0 0 0
      vertex 0 0 2.75
    endloop
  endfacet
  facet normal 0 0 1
    outer loop
      vertex 2 77.9 2.75
      vertex 1.8 76.1 2.75
      vertex 2 76.1 2.75
    endloop
  endfacet
  facet normal 0 0 1
    outer loop
      vertex 0 77.9 2.75
      vertex 1.8 74.45 2.75
      vertex 1.8 76.1 2.75
    endloop
  endfacet
  facet normal 0 0 1
    outer loop
      vertex 1.6 71.45 2.75
      vertex 0 77.9 2.75
      vertex 1.6 32.95 2.75
    endloop
  endfacet
  facet normal 0 0 1
    outer loop
      vertex 1.8 74.45 2.75
      vertex 0 77.9 2.75
      vertex 1.6 71.45 2.75
    endloop
  endfacet
  facet normal -0 0 1
    outer loop
      vertex 0 77.9 2.75
      vertex 1.8 76.1 2.75
      vertex 2 77.9 2.75
    endloop
  endfacet
  facet normal -0 0 1
    outer loop
      vertex 1.8 74.45 2.75
      vertex 2 71.45 2.75
      vertex 2 74.45 2.75
    endloop
  endfacet
  facet normal 0 0 1
    outer loop
      vertex 2 71.45 2.75
      vertex 1.8 74.45 2.75
      vertex 1.6 71.45 2.75
    endloop
  endfacet
  facet normal 0 0 1
    outer loop
      vertex 2 28.8887 2.75
      vertex 1.8 19.8446 2.75
      vertex 2 19.4704 2.75
    endloop
  endfacet
  facet normal 0 0 1
    outer loop
      vertex 0 0 2.75
      vertex 1.8 12.1817 2.75
      vertex 1.8 19.8446 2.75
    endloop
  endfacet
  facet normal 0 0 1
    outer loop
      vertex 1.8 12.1817 2.75
      vertex 0 0 2.75
      vertex 1.8 10.3817 2.75
    endloop
  endfacet
  facet normal 0 0 1
    outer loop
      vertex 0 0 2.75
      vertex 1.8 19.8446 2.75
      vertex 1.6 32.95 2.75
    endloop
  endfacet
  facet normal 0 0 1
    outer loop
      vertex 1.6 32.95 2.75
      vertex 1.8 19.8446 2.75
      vertex 2 28.8887 2.75
    endloop
  endfacet
  facet normal 0 0 1
    outer loop
      vertex 1.8 10.3817 2.75
      vertex 2 12.174 2.75
      vertex 1.8 12.1817 2.75
    endloop
  endfacet
  facet normal 0 0 1
    outer loop
      vertex 2 12.174 2.75
      vertex 1.8 10.3817 2.75
      vertex 2 10.3741 2.75
    endloop
  endfacet
  facet normal -0 0 1
    outer loop
      vertex 1.8 1.8 2.75
      vertex 2 0 2.75
      vertex 2 1.8 2.75
    endloop
  endfacet
  facet normal 0 0 1
    outer loop
      vertex 0 0 2.75
      vertex 1.6 32.95 2.75
      vertex 0 77.9 2.75
    endloop
  endfacet
  facet normal 0 0 1
    outer loop
      vertex 1.8 1.8 2.75
      vertex 0 0 2.75
      vertex 2 0 2.75
    endloop
  endfacet
  facet normal 0 0 1
    outer loop
      vertex 1.8 10.3817 2.75
      vertex 0 0 2.75
      vertex 1.8 1.8 2.75
    endloop
  endfacet
  facet normal -0 0 1
    outer loop
      vertex 54.2 10.4939 2.75
      vertex 54.4 8.25299 2.75
      vertex 54.4 10.6744 2.75
    endloop
  endfacet
  facet normal 0 0 1
    outer loop
      vertex 54.4 8.25299 2.75
      vertex 54.2 10.4939 2.75
      vertex 54.2 8.07251 2.75
    endloop
  endfacet
  facet normal 0 0 1
    outer loop
      vertex 56.2 24.3985 2.75
      vertex 54.2 28.8887 2.75
      vertex 54.4 19.8446 2.75
    endloop
  endfacet
  facet normal 0 0 1
    outer loop
      vertex 54.4 19.8446 2.75
      vertex 54.2 28.8887 2.75
      vertex 54.2 19.4704 2.75
    endloop
  endfacet
  facet normal -0 0 1
    outer loop
      vertex 54.4 76.1 2.75
      vertex 56.2 73.9801 2.75
      vertex 56.2 77.9 2.75
    endloop
  endfacet
  facet normal 0 0 1
    outer loop
      vertex 56.2 73.9801 2.75
      vertex 54.6 32.95 2.75
      vertex 56.2 24.3985 2.75
    endloop
  endfacet
  facet normal 0 0 1
    outer loop
      vertex 56.2 73.9801 2.75
      vertex 54.6 71.45 2.75
      vertex 54.6 32.95 2.75
    endloop
  endfacet
  facet normal 0 0 1
    outer loop
      vertex 56.2 73.9801 2.75
      vertex 54.4 76.1 2.75
      vertex 54.4 74.45 2.75
    endloop
  endfacet
  facet normal -0 0 1
    outer loop
      vertex 54.2 77.9 2.75
      vertex 54.4 76.1 2.75
      vertex 56.2 77.9 2.75
    endloop
  endfacet
  facet normal 0 0 1
    outer loop
      vertex 54.4 76.1 2.75
      vertex 54.2 77.9 2.75
      vertex 54.2 76.1 2.75
    endloop
  endfacet
  facet normal -0 0 1
    outer loop
      vertex 54.2 28.8887 2.75
      vertex 56.2 24.3985 2.75
      vertex 54.6 32.95 2.75
    endloop
  endfacet
  facet normal 0 0 1
    outer loop
      vertex 54.4 10.6744 2.75
      vertex 56.2 24.3985 2.75
      vertex 54.4 19.8446 2.75
    endloop
  endfacet
  facet normal 0 0 1
    outer loop
      vertex 56.2 24.3985 2.75
      vertex 54.4 10.6744 2.75
      vertex 56.2 0 2.75
    endloop
  endfacet
  facet normal -0 0 1
    outer loop
      vertex 54.4 8.25299 2.75
      vertex 56.2 0 2.75
      vertex 54.4 10.6744 2.75
    endloop
  endfacet
  facet normal -0 0 1
    outer loop
      vertex 54.4 1.8 2.75
      vertex 56.2 0 2.75
      vertex 54.4 8.25299 2.75
    endloop
  endfacet
  facet normal 0 0 1
    outer loop
      vertex 54.2 0 2.75
      vertex 54.4 1.8 2.75
      vertex 54.2 1.8 2.75
    endloop
  endfacet
  facet normal 0 0 1
    outer loop
      vertex 54.4 1.8 2.75
      vertex 54.2 0 2.75
      vertex 56.2 0 2.75
    endloop
  endfacet
  facet normal 0 0 1
    outer loop
      vertex 56.2 73.9801 2.75
      vertex 54.4 74.45 2.75
      vertex 54.6 71.45 2.75
    endloop
  endfacet
  facet normal 0 0 1
    outer loop
      vertex 54.2 71.45 2.75
      vertex 54.4 74.45 2.75
      vertex 54.2 74.45 2.75
    endloop
  endfacet
  facet normal 0 0 1
    outer loop
      vertex 54.4 74.45 2.75
      vertex 54.2 71.45 2.75
      vertex 54.6 71.45 2.75
    endloop
  endfacet
  facet normal 1 -0 0
    outer loop
      vertex 56.2 24.3985 2.75
      vertex 56.2 73.9801 0
      vertex 56.2 73.9801 2.75
    endloop
  endfacet
  facet normal 1 0 0
    outer loop
      vertex 56.2 73.9801 0
      vertex 56.2 24.3985 2.75
      vertex 56.2 24.3985 0
    endloop
  endfacet
  facet normal -0 0 -1
    outer loop
      vertex 7.14748 10.7382 0
      vertex 5.36006 10.2448 0
      vertex 5.88857 12.0244 0
    endloop
  endfacet
  facet normal 0 0 -1
    outer loop
      vertex 1.8 12.1817 0
      vertex 5.36006 10.2448 0
      vertex 1.8 10.3817 0
    endloop
  endfacet
  facet normal 0 0 -1
    outer loop
      vertex 5.36006 10.2448 0
      vertex 1.8 12.1817 0
      vertex 5.88857 12.0244 0
    endloop
  endfacet
  facet normal 0 0 -1
    outer loop
      vertex 54.6 71.45 0
      vertex 50.3815 74.45 0
      vertex 54.4 74.45 0
    endloop
  endfacet
  facet normal 0 0 -1
    outer loop
      vertex 50.3815 74.45 0
      vertex 48.2976 74.45 0
      vertex 49.3059 76.1 0
    endloop
  endfacet
  facet normal 0 0 -1
    outer loop
      vertex 54.6 71.45 0
      vertex 48.2976 74.45 0
      vertex 50.3815 74.45 0
    endloop
  endfacet
  facet normal 0 0 -1
    outer loop
      vertex 54.6 71.45 0
      vertex 40.0017 74.45 0
      vertex 48.2976 74.45 0
    endloop
  endfacet
  facet normal 0 0 -1
    outer loop
      vertex 40.0017 74.45 0
      vertex 38.0535 74.45 0
      vertex 39.3186 76.1 0
    endloop
  endfacet
  facet normal 0 0 -1
    outer loop
      vertex 54.6 71.45 0
      vertex 38.0535 74.45 0
      vertex 40.0017 74.45 0
    endloop
  endfacet
  facet normal 0 0 -1
    outer loop
      vertex 54.6 71.45 0
      vertex 22.0406 74.45 0
      vertex 38.0535 74.45 0
    endloop
  endfacet
  facet normal 0 0 -1
    outer loop
      vertex 22.0406 74.45 0
      vertex 20.2403 74.45 0
      vertex 20.5692 76.1 0
    endloop
  endfacet
  facet normal 0 0 -1
    outer loop
      vertex 1.6 71.45 0
      vertex 22.0406 74.45 0
      vertex 54.6 71.45 0
    endloop
  endfacet
  facet normal -0 0 -1
    outer loop
      vertex 22.0406 74.45 0
      vertex 1.6 71.45 0
      vertex 20.2403 74.45 0
    endloop
  endfacet
  facet normal 0 0 -1
    outer loop
      vertex 8.54866 74.45 0
      vertex 6.74867 74.45 0
      vertex 8.3378 76.1 0
    endloop
  endfacet
  facet normal -0 0 -1
    outer loop
      vertex 20.2403 74.45 0
      vertex 1.6 71.45 0
      vertex 8.54866 74.45 0
    endloop
  endfacet
  facet normal -0 0 -1
    outer loop
      vertex 8.54866 74.45 0
      vertex 1.6 71.45 0
      vertex 6.74867 74.45 0
    endloop
  endfacet
  facet normal 0 0 -1
    outer loop
      vertex 0 77.9 0
      vertex 1.8 74.45 0
      vertex 1.6 71.45 0
    endloop
  endfacet
  facet normal -0 0 -1
    outer loop
      vertex 6.74867 74.45 0
      vertex 1.6 71.45 0
      vertex 1.8 74.45 0
    endloop
  endfacet
  facet normal 0 0 -1
    outer loop
      vertex 52.9347 9.3521 0
      vertex 54.4 8.25299 0
      vertex 53.8793 7.7831 0
    endloop
  endfacet
  facet normal 0 0 -1
    outer loop
      vertex 54.4 8.25299 0
      vertex 52.9347 9.3521 0
      vertex 54.4 10.6744 0
    endloop
  endfacet
  facet normal 0 0 -1
    outer loop
      vertex 52.0789 7.77592 0
      vertex 53.8793 7.7831 0
      vertex 53.5416 1.8 0
    endloop
  endfacet
  facet normal 0 0 -1
    outer loop
      vertex 54.4 10.6744 0
      vertex 56.2 24.3985 0
      vertex 56.2 0 0
    endloop
  endfacet
  facet normal 0 0 -1
    outer loop
      vertex 56.2 24.3985 0
      vertex 54.6 32.95 0
      vertex 56.2 73.9801 0
    endloop
  endfacet
  facet normal 0 0 -1
    outer loop
      vertex 54.6 71.45 0
      vertex 56.2 73.9801 0
      vertex 54.6 32.95 0
    endloop
  endfacet
  facet normal 0 0 -1
    outer loop
      vertex 54.4 8.25299 0
      vertex 56.2 0 0
      vertex 54.4 1.8 0
    endloop
  endfacet
  facet normal 0 0 -1
    outer loop
      vertex 56.2 0 0
      vertex 53.5416 1.8 0
      vertex 54.4 1.8 0
    endloop
  endfacet
  facet normal -0 0 -1
    outer loop
      vertex 53.8793 7.7831 0
      vertex 52.0789 7.77592 0
      vertex 52.9347 9.3521 0
    endloop
  endfacet
  facet normal 0 0 -1
    outer loop
      vertex 53.5416 1.8 0
      vertex 51.7416 1.8 0
      vertex 52.0789 7.77592 0
    endloop
  endfacet
  facet normal 0 0 -1
    outer loop
      vertex 56.2 0 0
      vertex 51.7416 1.8 0
      vertex 53.5416 1.8 0
    endloop
  endfacet
  facet normal 0 0 -1
    outer loop
      vertex 56.2 0 0
      vertex 38.3687 1.8 0
      vertex 51.7416 1.8 0
    endloop
  endfacet
  facet normal 0 0 -1
    outer loop
      vertex 35.7946 4.59008 0
      vertex 37.8115 2.33873 0
      vertex 35.9966 2.49278 0
    endloop
  endfacet
  facet normal 0 0 -1
    outer loop
      vertex 38.3687 1.8 0
      vertex 35.9966 2.49278 0
      vertex 37.8115 2.33873 0
    endloop
  endfacet
  facet normal 0 0 -1
    outer loop
      vertex 38.3687 1.8 0
      vertex 34.3477 1.8 0
      vertex 35.9966 2.49278 0
    endloop
  endfacet
  facet normal 0 0 -1
    outer loop
      vertex 56.2 0 0
      vertex 34.3477 1.8 0
      vertex 38.3687 1.8 0
    endloop
  endfacet
  facet normal 0 0 -1
    outer loop
      vertex 56.2 0 0
      vertex 20.7278 1.8 0
      vertex 34.3477 1.8 0
    endloop
  endfacet
  facet normal 0 0 -1
    outer loop
      vertex 20.7278 1.8 0
      vertex 18.9278 1.8 0
      vertex 20.646 4.51708 0
    endloop
  endfacet
  facet normal 0 0 -1
    outer loop
      vertex 0 0 0
      vertex 20.7278 1.8 0
      vertex 56.2 0 0
    endloop
  endfacet
  facet normal -0 0 -1
    outer loop
      vertex 20.7278 1.8 0
      vertex 0 0 0
      vertex 18.9278 1.8 0
    endloop
  endfacet
  facet normal 0 0 -1
    outer loop
      vertex 5.36006 10.2448 0
      vertex 7.37514 1.8 0
      vertex 5.57515 1.8 0
    endloop
  endfacet
  facet normal 0 0 -1
    outer loop
      vertex 7.14748 10.7382 0
      vertex 5.88857 12.0244 0
      vertex 6.66256 12.7716 0
    endloop
  endfacet
  facet normal 0 0 -1
    outer loop
      vertex 7.37514 1.8 0
      vertex 5.36006 10.2448 0
      vertex 7.14748 10.7382 0
    endloop
  endfacet
  facet normal -0 0 -1
    outer loop
      vertex 18.9278 1.8 0
      vertex 0 0 0
      vertex 7.37514 1.8 0
    endloop
  endfacet
  facet normal -0 0 -1
    outer loop
      vertex 7.37514 1.8 0
      vertex 0 0 0
      vertex 5.57515 1.8 0
    endloop
  endfacet
  facet normal 0 0 -1
    outer loop
      vertex 0 0 0
      vertex 1.8 10.3817 0
      vertex 1.8 1.8 0
    endloop
  endfacet
  facet normal -0 0 -1
    outer loop
      vertex 1.8 10.3817 0
      vertex 0 0 0
      vertex 1.8 12.1817 0
    endloop
  endfacet
  facet normal -0 0 -1
    outer loop
      vertex 1.8 12.1817 0
      vertex 0 0 0
      vertex 1.8 19.8446 0
    endloop
  endfacet
  facet normal 0 0 -1
    outer loop
      vertex 0 77.9 0
      vertex 1.6 32.95 0
      vertex 0 0 0
    endloop
  endfacet
  facet normal -0 0 -1
    outer loop
      vertex 1.8 19.8446 0
      vertex 0 0 0
      vertex 1.6 32.95 0
    endloop
  endfacet
  facet normal -0 0 -1
    outer loop
      vertex 5.57515 1.8 0
      vertex 0 0 0
      vertex 1.8 1.8 0
    endloop
  endfacet
  facet normal 0 0 -1
    outer loop
      vertex 54.4 74.45 0
      vertex 56.2 73.9801 0
      vertex 54.6 71.45 0
    endloop
  endfacet
  facet normal 0 0 -1
    outer loop
      vertex 54.4 76.1 0
      vertex 56.2 73.9801 0
      vertex 54.4 74.45 0
    endloop
  endfacet
  facet normal 0 0 -1
    outer loop
      vertex 56.2 73.9801 0
      vertex 54.4 76.1 0
      vertex 56.2 77.9 0
    endloop
  endfacet
  facet normal 0 0 -1
    outer loop
      vertex 51.3898 76.1 0
      vertex 56.2 77.9 0
      vertex 54.4 76.1 0
    endloop
  endfacet
  facet normal 0 0 -1
    outer loop
      vertex 49.3059 76.1 0
      vertex 51.3898 76.1 0
      vertex 50.3815 74.45 0
    endloop
  endfacet
  facet normal 0 0 -1
    outer loop
      vertex 49.3059 76.1 0
      vertex 56.2 77.9 0
      vertex 51.3898 76.1 0
    endloop
  endfacet
  facet normal 0 0 -1
    outer loop
      vertex 39.3186 76.1 0
      vertex 56.2 77.9 0
      vertex 49.3059 76.1 0
    endloop
  endfacet
  facet normal 0 0 -1
    outer loop
      vertex 37.3705 76.1 0
      vertex 39.3186 76.1 0
      vertex 38.0535 74.45 0
    endloop
  endfacet
  facet normal 0 0 -1
    outer loop
      vertex 37.3705 76.1 0
      vertex 56.2 77.9 0
      vertex 39.3186 76.1 0
    endloop
  endfacet
  facet normal 0 0 -1
    outer loop
      vertex 22.3695 76.1 0
      vertex 56.2 77.9 0
      vertex 37.3705 76.1 0
    endloop
  endfacet
  facet normal 0 0 -1
    outer loop
      vertex 20.5692 76.1 0
      vertex 22.3695 76.1 0
      vertex 22.0406 74.45 0
    endloop
  endfacet
  facet normal 0 0 -1
    outer loop
      vertex 0 77.9 0
      vertex 22.3695 76.1 0
      vertex 20.5692 76.1 0
    endloop
  endfacet
  facet normal 0 0 -1
    outer loop
      vertex 0 77.9 0
      vertex 20.5692 76.1 0
      vertex 8.3378 76.1 0
    endloop
  endfacet
  facet normal 0 0 -1
    outer loop
      vertex 6.53781 76.1 0
      vertex 8.3378 76.1 0
      vertex 6.74867 74.45 0
    endloop
  endfacet
  facet normal 0 0 -1
    outer loop
      vertex 0 77.9 0
      vertex 8.3378 76.1 0
      vertex 6.53781 76.1 0
    endloop
  endfacet
  facet normal 0 0 -1
    outer loop
      vertex 0 77.9 0
      vertex 6.53781 76.1 0
      vertex 1.8 76.1 0
    endloop
  endfacet
  facet normal 0 0 -1
    outer loop
      vertex 22.3695 76.1 0
      vertex 0 77.9 0
      vertex 56.2 77.9 0
    endloop
  endfacet
  facet normal 0 0 -1
    outer loop
      vertex 1.8 74.45 0
      vertex 0 77.9 0
      vertex 1.8 76.1 0
    endloop
  endfacet
  facet normal 0 0 -1
    outer loop
      vertex 1.6 32.95 0
      vertex 0 77.9 0
      vertex 1.6 71.45 0
    endloop
  endfacet
  facet normal 0 0 -1
    outer loop
      vertex 54.4 10.6744 0
      vertex 56.2 0 0
      vertex 54.4 8.25299 0
    endloop
  endfacet
  facet normal 0 0 -1
    outer loop
      vertex 56.2 24.3985 0
      vertex 54.4 10.6744 0
      vertex 54.4 19.8446 0
    endloop
  endfacet
  facet normal 0 0 -1
    outer loop
      vertex 52.5828 22.8089 0
      vertex 56.2 24.3985 0
      vertex 54.4 19.8446 0
    endloop
  endfacet
  facet normal 0 0 -1
    outer loop
      vertex 56.2 24.3985 0
      vertex 54.0908 27.7801 0
      vertex 54.6 32.95 0
    endloop
  endfacet
  facet normal 0 0 -1
    outer loop
      vertex 50.1339 18.2274 0
      vertex 54.4 19.8446 0
      vertex 52.7797 16.8132 0
    endloop
  endfacet
  facet normal -0 0 -1
    outer loop
      vertex 56.2 24.3985 0
      vertex 52.5828 22.8089 0
      vertex 54.0908 27.7801 0
    endloop
  endfacet
  facet normal 0 0 -1
    outer loop
      vertex 50.1339 18.2274 0
      vertex 52.7797 16.8132 0
      vertex 52.453 16.3242 0
    endloop
  endfacet
  facet normal -0 0 -1
    outer loop
      vertex 54.4 19.8446 0
      vertex 50.1339 18.2274 0
      vertex 52.5828 22.8089 0
    endloop
  endfacet
  facet normal 0 0 -1
    outer loop
      vertex 49.1574 12.3085 0
      vertex 50.1339 18.2274 0
      vertex 52.453 16.3242 0
    endloop
  endfacet
  facet normal 0 0 -1
    outer loop
      vertex 46.8383 14.2117 0
      vertex 49.1574 12.3085 0
      vertex 49.037 12.1881 0
    endloop
  endfacet
  facet normal 0 0 -1
    outer loop
      vertex 46.8383 14.2117 0
      vertex 49.037 12.1881 0
      vertex 47.651 10.9977 0
    endloop
  endfacet
  facet normal 0 0 -1
    outer loop
      vertex 49.1574 12.3085 0
      vertex 46.8383 14.2117 0
      vertex 50.1339 18.2274 0
    endloop
  endfacet
  facet normal 0 0 -1
    outer loop
      vertex 42.8226 10.9161 0
      vertex 47.651 10.9977 0
      vertex 44.7258 8.59703 0
    endloop
  endfacet
  facet normal 0 0 -1
    outer loop
      vertex 42.8226 10.9161 0
      vertex 44.7258 8.59703 0
      vertex 44.2368 8.2703 0
    endloop
  endfacet
  facet normal -0 0 -1
    outer loop
      vertex 47.651 10.9977 0
      vertex 42.8226 10.9161 0
      vertex 46.8383 14.2117 0
    endloop
  endfacet
  facet normal 0 0 -1
    outer loop
      vertex 39.6553 5.82143 0
      vertex 42.8226 10.9161 0
      vertex 44.2368 8.2703 0
    endloop
  endfacet
  facet normal 0 0 -1
    outer loop
      vertex 38.2411 8.46719 0
      vertex 39.6553 5.82143 0
      vertex 39.1119 5.59638 0
    endloop
  endfacet
  facet normal 0 0 -1
    outer loop
      vertex 39.6553 5.82143 0
      vertex 38.2411 8.46719 0
      vertex 42.8226 10.9161 0
    endloop
  endfacet
  facet normal 0 0 -1
    outer loop
      vertex 37.5435 5.1206 0
      vertex 38.2411 8.46719 0
      vertex 39.1119 5.59638 0
    endloop
  endfacet
  facet normal 0 0 -1
    outer loop
      vertex 37.8115 2.33873 0
      vertex 35.7946 4.59008 0
      vertex 37.5435 5.1206 0
    endloop
  endfacet
  facet normal -0 0 -1
    outer loop
      vertex 37.5435 5.1206 0
      vertex 35.7946 4.59008 0
      vertex 38.2411 8.46719 0
    endloop
  endfacet
  facet normal 0 0 -1
    outer loop
      vertex 33.2699 6.95919 0
      vertex 35.7946 4.59008 0
      vertex 34.1407 4.08838 0
    endloop
  endfacet
  facet normal 0 0 -1
    outer loop
      vertex 33.2699 6.95919 0
      vertex 34.1407 4.08838 0
      vertex 33.5639 3.97365 0
    endloop
  endfacet
  facet normal 0 0 -1
    outer loop
      vertex 35.7946 4.59008 0
      vertex 33.2699 6.95919 0
      vertex 38.2411 8.46719 0
    endloop
  endfacet
  facet normal 0 0 -1
    outer loop
      vertex 28.3941 3.46445 0
      vertex 33.2699 6.95919 0
      vertex 33.5639 3.97365 0
    endloop
  endfacet
  facet normal 0 0 -1
    outer loop
      vertex 28.3941 3.46445 0
      vertex 28.1 6.45 0
      vertex 33.2699 6.95919 0
    endloop
  endfacet
  facet normal 0 0 -1
    outer loop
      vertex 27.8059 3.46445 0
      vertex 28.1 6.45 0
      vertex 28.3941 3.46445 0
    endloop
  endfacet
  facet normal 0 0 -1
    outer loop
      vertex 27.8059 3.46445 0
      vertex 22.9301 6.95919 0
      vertex 28.1 6.45 0
    endloop
  endfacet
  facet normal 0 0 -1
    outer loop
      vertex 22.6361 3.97365 0
      vertex 22.9301 6.95919 0
      vertex 27.8059 3.46445 0
    endloop
  endfacet
  facet normal 0 0 -1
    outer loop
      vertex 22.0593 4.08838 0
      vertex 22.9301 6.95919 0
      vertex 22.6361 3.97365 0
    endloop
  endfacet
  facet normal 0 0 -1
    outer loop
      vertex 20.646 4.51708 0
      vertex 22.9301 6.95919 0
      vertex 22.0593 4.08838 0
    endloop
  endfacet
  facet normal 0 0 -1
    outer loop
      vertex 18.8294 5.06814 0
      vertex 20.646 4.51708 0
      vertex 18.9278 1.8 0
    endloop
  endfacet
  facet normal 0 0 -1
    outer loop
      vertex 18.8294 5.06814 0
      vertex 22.9301 6.95919 0
      vertex 20.646 4.51708 0
    endloop
  endfacet
  facet normal 0 0 -1
    outer loop
      vertex 18.8294 5.06814 0
      vertex 17.9589 8.46719 0
      vertex 22.9301 6.95919 0
    endloop
  endfacet
  facet normal 0 0 -1
    outer loop
      vertex 17.0881 5.59638 0
      vertex 17.9589 8.46719 0
      vertex 18.8294 5.06814 0
    endloop
  endfacet
  facet normal 0 0 -1
    outer loop
      vertex 16.5447 5.82143 0
      vertex 17.9589 8.46719 0
      vertex 17.0881 5.59638 0
    endloop
  endfacet
  facet normal 0 0 -1
    outer loop
      vertex 16.5447 5.82143 0
      vertex 13.3774 10.9161 0
      vertex 17.9589 8.46719 0
    endloop
  endfacet
  facet normal 0 0 -1
    outer loop
      vertex 11.9632 8.2703 0
      vertex 13.3774 10.9161 0
      vertex 16.5447 5.82143 0
    endloop
  endfacet
  facet normal 0 0 -1
    outer loop
      vertex 11.4742 8.59703 0
      vertex 13.3774 10.9161 0
      vertex 11.9632 8.2703 0
    endloop
  endfacet
  facet normal 0 0 -1
    outer loop
      vertex 7.93673 11.5002 0
      vertex 13.3774 10.9161 0
      vertex 11.4742 8.59703 0
    endloop
  endfacet
  facet normal 0 0 -1
    outer loop
      vertex 13.3774 10.9161 0
      vertex 7.93673 11.5002 0
      vertex 9.36167 14.2117 0
    endloop
  endfacet
  facet normal 0 0 -1
    outer loop
      vertex 6.66256 12.7716 0
      vertex 7.93673 11.5002 0
      vertex 7.14748 10.7382 0
    endloop
  endfacet
  facet normal 0 0 -1
    outer loop
      vertex 7.93673 11.5002 0
      vertex 6.66256 12.7716 0
      vertex 9.36167 14.2117 0
    endloop
  endfacet
  facet normal 0 0 -1
    outer loop
      vertex 6.66256 12.7716 0
      vertex 6.06605 18.2274 0
      vertex 9.36167 14.2117 0
    endloop
  endfacet
  facet normal 0 0 -1
    outer loop
      vertex 3.74703 16.3242 0
      vertex 6.06605 18.2274 0
      vertex 6.66256 12.7716 0
    endloop
  endfacet
  facet normal 0 0 -1
    outer loop
      vertex 3.4203 16.8132 0
      vertex 6.06605 18.2274 0
      vertex 3.74703 16.3242 0
    endloop
  endfacet
  facet normal 0 0 -1
    outer loop
      vertex 1.8 19.8446 0
      vertex 6.06605 18.2274 0
      vertex 3.4203 16.8132 0
    endloop
  endfacet
  facet normal 0 0 -1
    outer loop
      vertex 6.06605 18.2274 0
      vertex 1.8 19.8446 0
      vertex 3.61719 22.8089 0
    endloop
  endfacet
  facet normal -0 0 -1
    outer loop
      vertex 3.61719 22.8089 0
      vertex 1.8 19.8446 0
      vertex 2.10919 27.7801 0
    endloop
  endfacet
  facet normal -0 0 -1
    outer loop
      vertex 2.10919 27.7801 0
      vertex 1.8 19.8446 0
      vertex 1.6 32.95 0
    endloop
  endfacet
  facet normal 0 0 -1
    outer loop
      vertex 52.0789 7.77592 0
      vertex 49.037 12.1881 0
      vertex 52.9347 9.3521 0
    endloop
  endfacet
  facet normal 0 -0 -1
    outer loop
      vertex 49.037 12.1881 0
      vertex 52.0789 7.77592 0
      vertex 47.651 10.9977 0
    endloop
  endfacet
  facet normal 0 -1 0
    outer loop
      vertex 0 0 0
      vertex 2 0 2.75
      vertex 0 0 2.75
    endloop
  endfacet
  facet normal 0 -1 -0
    outer loop
      vertex 2 0 2.75
      vertex 0 0 0
      vertex 54.2 0 2.75
    endloop
  endfacet
  facet normal 0 -1 0
    outer loop
      vertex 56.2 0 0
      vertex 54.2 0 2.75
      vertex 0 0 0
    endloop
  endfacet
  facet normal 0 -1 0
    outer loop
      vertex 54.2 0 2.75
      vertex 56.2 0 0
      vertex 56.2 0 2.75
    endloop
  endfacet
  facet normal 0 -1 0
    outer loop
      vertex 2 0 2.75
      vertex 54.2 0 6
      vertex 2 0 6
    endloop
  endfacet
  facet normal 0 -1 -0
    outer loop
      vertex 54.2 0 6
      vertex 2 0 2.75
      vertex 54.2 0 2.75
    endloop
  endfacet
  facet normal -1 0 0
    outer loop
      vertex 2 0 2.75
      vertex 2 1.8 6
      vertex 2 1.8 2.75
    endloop
  endfacet
  facet normal -1 -0 0
    outer loop
      vertex 2 1.8 6
      vertex 2 0 2.75
      vertex 2 0 6
    endloop
  endfacet
  facet normal -1 0 0
    outer loop
      vertex 2 76.1 2.75
      vertex 2 77.9 6
      vertex 2 77.9 2.75
    endloop
  endfacet
  facet normal -1 -0 0
    outer loop
      vertex 2 77.9 6
      vertex 2 76.1 2.75
      vertex 2 76.1 6
    endloop
  endfacet
  facet normal -1 0 0
    outer loop
      vertex 2 10.3741 2.75
      vertex 2 12.174 6
      vertex 2 12.174 2.75
    endloop
  endfacet
  facet normal -1 -0 0
    outer loop
      vertex 2 12.174 6
      vertex 2 10.3741 2.75
      vertex 2 10.3741 6
    endloop
  endfacet
  facet normal -1 0 0
    outer loop
      vertex 2 71.45 2.75
      vertex 2 74.45 6
      vertex 2 74.45 2.75
    endloop
  endfacet
  facet normal -1 -0 0
    outer loop
      vertex 2 74.45 6
      vertex 2 71.45 2.75
      vertex 2 71.45 6
    endloop
  endfacet
  facet normal -1 0 0
    outer loop
      vertex 2 19.4704 2.75
      vertex 2 28.8887 6
      vertex 2 28.8887 2.75
    endloop
  endfacet
  facet normal -1 -0 0
    outer loop
      vertex 2 28.8887 6
      vertex 2 19.4704 2.75
      vertex 2 19.4704 6
    endloop
  endfacet
  facet normal 1 -0 0
    outer loop
      vertex 54.2 0 6
      vertex 54.2 1.8 2.75
      vertex 54.2 1.8 6
    endloop
  endfacet
  facet normal 1 0 0
    outer loop
      vertex 54.2 1.8 2.75
      vertex 54.2 0 6
      vertex 54.2 0 2.75
    endloop
  endfacet
  facet normal 1 -0 0
    outer loop
      vertex 54.2 76.1 6
      vertex 54.2 77.9 2.75
      vertex 54.2 77.9 6
    endloop
  endfacet
  facet normal 1 0 0
    outer loop
      vertex 54.2 77.9 2.75
      vertex 54.2 76.1 6
      vertex 54.2 76.1 2.75
    endloop
  endfacet
  facet normal 1 -0 0
    outer loop
      vertex 54.2 71.45 6
      vertex 54.2 74.45 2.75
      vertex 54.2 74.45 6
    endloop
  endfacet
  facet normal 1 0 0
    outer loop
      vertex 54.2 74.45 2.75
      vertex 54.2 71.45 6
      vertex 54.2 71.45 2.75
    endloop
  endfacet
  facet normal 1 -0 0
    outer loop
      vertex 54.2 19.4704 6
      vertex 54.2 28.8887 2.75
      vertex 54.2 28.8887 6
    endloop
  endfacet
  facet normal 1 0 0
    outer loop
      vertex 54.2 28.8887 2.75
      vertex 54.2 19.4704 6
      vertex 54.2 19.4704 2.75
    endloop
  endfacet
  facet normal 1 -0 0
    outer loop
      vertex 54.2 8.07251 6
      vertex 54.2 10.4939 2.75
      vertex 54.2 10.4939 6
    endloop
  endfacet
  facet normal 1 0 0
    outer loop
      vertex 54.2 10.4939 2.75
      vertex 54.2 8.07251 6
      vertex 54.2 8.07251 2.75
    endloop
  endfacet
  facet normal -0 0 1
    outer loop
      vertex 52.9347 9.3521 6
      vertex 54.2 8.07251 6
      vertex 54.2 10.4939 6
    endloop
  endfacet
  facet normal 0 0 1
    outer loop
      vertex 52.0789 7.77592 6
      vertex 53.8793 7.7831 6
      vertex 52.9347 9.3521 6
    endloop
  endfacet
  facet normal 0 0 1
    outer loop
      vertex 54.2 8.07251 6
      vertex 52.9347 9.3521 6
      vertex 53.8793 7.7831 6
    endloop
  endfacet
  facet normal -0 0 1
    outer loop
      vertex 53.5416 1.8 6
      vertex 54.2 0 6
      vertex 54.2 1.8 6
    endloop
  endfacet
  facet normal 0 0 1
    outer loop
      vertex 53.8793 7.7831 6
      vertex 52.0789 7.77592 6
      vertex 53.5416 1.8 6
    endloop
  endfacet
  facet normal 0 0 1
    outer loop
      vertex 51.7416 1.8 6
      vertex 53.5416 1.8 6
      vertex 52.0789 7.77592 6
    endloop
  endfacet
  facet normal -0 0 1
    outer loop
      vertex 51.7416 1.8 6
      vertex 54.2 0 6
      vertex 53.5416 1.8 6
    endloop
  endfacet
  facet normal -0 0 1
    outer loop
      vertex 38.3687 1.8 6
      vertex 54.2 0 6
      vertex 51.7416 1.8 6
    endloop
  endfacet
  facet normal -0 0 1
    outer loop
      vertex 35.7946 4.59008 6
      vertex 37.8115 2.33873 6
      vertex 37.5435 5.1206 6
    endloop
  endfacet
  facet normal 0 0 1
    outer loop
      vertex 35.9966 2.49278 6
      vertex 38.3687 1.8 6
      vertex 37.8115 2.33873 6
    endloop
  endfacet
  facet normal 0 0 1
    outer loop
      vertex 34.3477 1.8 6
      vertex 38.3687 1.8 6
      vertex 35.9966 2.49278 6
    endloop
  endfacet
  facet normal -0 0 1
    outer loop
      vertex 34.3477 1.8 6
      vertex 54.2 0 6
      vertex 38.3687 1.8 6
    endloop
  endfacet
  facet normal -0 0 1
    outer loop
      vertex 20.7278 1.8 6
      vertex 54.2 0 6
      vertex 34.3477 1.8 6
    endloop
  endfacet
  facet normal 0 0 1
    outer loop
      vertex 18.9278 1.8 6
      vertex 20.7278 1.8 6
      vertex 20.646 4.51708 6
    endloop
  endfacet
  facet normal 0 0 1
    outer loop
      vertex 2 0 6
      vertex 20.7278 1.8 6
      vertex 18.9278 1.8 6
    endloop
  endfacet
  facet normal 0 0 1
    outer loop
      vertex 2 0 6
      vertex 18.9278 1.8 6
      vertex 7.37514 1.8 6
    endloop
  endfacet
  facet normal -0 0 1
    outer loop
      vertex 5.88857 12.0244 6
      vertex 7.14748 10.7382 6
      vertex 6.66256 12.7716 6
    endloop
  endfacet
  facet normal 0 0 1
    outer loop
      vertex 7.14748 10.7382 6
      vertex 5.88857 12.0244 6
      vertex 5.36006 10.2448 6
    endloop
  endfacet
  facet normal 0 0 1
    outer loop
      vertex 7.14748 10.7382 6
      vertex 5.36006 10.2448 6
      vertex 7.37514 1.8 6
    endloop
  endfacet
  facet normal 0 0 1
    outer loop
      vertex 2 0 6
      vertex 7.37514 1.8 6
      vertex 5.57515 1.8 6
    endloop
  endfacet
  facet normal 0 0 1
    outer loop
      vertex 2 0 6
      vertex 5.57515 1.8 6
      vertex 2 1.8 6
    endloop
  endfacet
  facet normal 0 0 1
    outer loop
      vertex 20.7278 1.8 6
      vertex 2 0 6
      vertex 54.2 0 6
    endloop
  endfacet
  facet normal 0 0 1
    outer loop
      vertex 7.37514 1.8 6
      vertex 5.36006 10.2448 6
      vertex 5.57515 1.8 6
    endloop
  endfacet
  facet normal 0 0 1
    outer loop
      vertex 2 12.174 6
      vertex 5.36006 10.2448 6
      vertex 5.88857 12.0244 6
    endloop
  endfacet
  facet normal 0 0 1
    outer loop
      vertex 5.36006 10.2448 6
      vertex 2 12.174 6
      vertex 2 10.3741 6
    endloop
  endfacet
  facet normal -0 0 1
    outer loop
      vertex 54.0908 27.7801 6
      vertex 54.2 19.4704 6
      vertex 54.2 28.8887 6
    endloop
  endfacet
  facet normal -0 0 1
    outer loop
      vertex 52.5828 22.8089 6
      vertex 54.2 19.4704 6
      vertex 54.0908 27.7801 6
    endloop
  endfacet
  facet normal 0 0 1
    outer loop
      vertex 50.1339 18.2274 6
      vertex 54.2 19.4704 6
      vertex 52.5828 22.8089 6
    endloop
  endfacet
  facet normal 0 0 1
    outer loop
      vertex 54.2 19.4704 6
      vertex 50.1339 18.2274 6
      vertex 52.7797 16.8132 6
    endloop
  endfacet
  facet normal 0 0 1
    outer loop
      vertex 52.7797 16.8132 6
      vertex 50.1339 18.2274 6
      vertex 52.453 16.3242 6
    endloop
  endfacet
  facet normal 0 0 1
    outer loop
      vertex 50.1339 18.2274 6
      vertex 49.1574 12.3085 6
      vertex 52.453 16.3242 6
    endloop
  endfacet
  facet normal -0 0 1
    outer loop
      vertex 46.8383 14.2117 6
      vertex 49.1574 12.3085 6
      vertex 50.1339 18.2274 6
    endloop
  endfacet
  facet normal 0 0 1
    outer loop
      vertex 49.1574 12.3085 6
      vertex 46.8383 14.2117 6
      vertex 49.037 12.1881 6
    endloop
  endfacet
  facet normal 0 0 1
    outer loop
      vertex 49.037 12.1881 6
      vertex 46.8383 14.2117 6
      vertex 47.651 10.9977 6
    endloop
  endfacet
  facet normal 0 0 1
    outer loop
      vertex 42.8226 10.9161 6
      vertex 47.651 10.9977 6
      vertex 46.8383 14.2117 6
    endloop
  endfacet
  facet normal 0 0 1
    outer loop
      vertex 47.651 10.9977 6
      vertex 42.8226 10.9161 6
      vertex 44.7258 8.59703 6
    endloop
  endfacet
  facet normal 0 0 1
    outer loop
      vertex 44.7258 8.59703 6
      vertex 42.8226 10.9161 6
      vertex 44.2368 8.2703 6
    endloop
  endfacet
  facet normal 0 0 1
    outer loop
      vertex 42.8226 10.9161 6
      vertex 39.6553 5.82143 6
      vertex 44.2368 8.2703 6
    endloop
  endfacet
  facet normal -0 0 1
    outer loop
      vertex 38.2411 8.46719 6
      vertex 39.6553 5.82143 6
      vertex 42.8226 10.9161 6
    endloop
  endfacet
  facet normal 0 0 1
    outer loop
      vertex 39.6553 5.82143 6
      vertex 38.2411 8.46719 6
      vertex 39.1119 5.59638 6
    endloop
  endfacet
  facet normal 0 0 1
    outer loop
      vertex 38.2411 8.46719 6
      vertex 37.5435 5.1206 6
      vertex 39.1119 5.59638 6
    endloop
  endfacet
  facet normal 0 0 1
    outer loop
      vertex 35.7946 4.59008 6
      vertex 37.5435 5.1206 6
      vertex 38.2411 8.46719 6
    endloop
  endfacet
  facet normal 0 0 1
    outer loop
      vertex 37.8115 2.33873 6
      vertex 35.7946 4.59008 6
      vertex 35.9966 2.49278 6
    endloop
  endfacet
  facet normal -0 0 1
    outer loop
      vertex 33.2699 6.95919 6
      vertex 35.7946 4.59008 6
      vertex 38.2411 8.46719 6
    endloop
  endfacet
  facet normal 0 0 1
    outer loop
      vertex 35.7946 4.59008 6
      vertex 33.2699 6.95919 6
      vertex 34.1407 4.08838 6
    endloop
  endfacet
  facet normal 0 0 1
    outer loop
      vertex 34.1407 4.08838 6
      vertex 33.2699 6.95919 6
      vertex 33.5639 3.97365 6
    endloop
  endfacet
  facet normal 0 0 1
    outer loop
      vertex 33.2699 6.95919 6
      vertex 28.3941 3.46445 6
      vertex 33.5639 3.97365 6
    endloop
  endfacet
  facet normal -0 0 1
    outer loop
      vertex 28.1 6.45 6
      vertex 28.3941 3.46445 6
      vertex 33.2699 6.95919 6
    endloop
  endfacet
  facet normal 0 0 1
    outer loop
      vertex 28.1 6.45 6
      vertex 27.8059 3.46445 6
      vertex 28.3941 3.46445 6
    endloop
  endfacet
  facet normal 0 0 1
    outer loop
      vertex 22.9301 6.95919 6
      vertex 27.8059 3.46445 6
      vertex 28.1 6.45 6
    endloop
  endfacet
  facet normal 0 0 1
    outer loop
      vertex 22.9301 6.95919 6
      vertex 22.6361 3.97365 6
      vertex 27.8059 3.46445 6
    endloop
  endfacet
  facet normal 0 0 1
    outer loop
      vertex 22.9301 6.95919 6
      vertex 22.0593 4.08838 6
      vertex 22.6361 3.97365 6
    endloop
  endfacet
  facet normal 0 0 1
    outer loop
      vertex 22.9301 6.95919 6
      vertex 20.646 4.51708 6
      vertex 22.0593 4.08838 6
    endloop
  endfacet
  facet normal 0 0 1
    outer loop
      vertex 20.646 4.51708 6
      vertex 18.8294 5.06814 6
      vertex 18.9278 1.8 6
    endloop
  endfacet
  facet normal 0 0 1
    outer loop
      vertex 22.9301 6.95919 6
      vertex 18.8294 5.06814 6
      vertex 20.646 4.51708 6
    endloop
  endfacet
  facet normal 0 0 1
    outer loop
      vertex 17.9589 8.46719 6
      vertex 18.8294 5.06814 6
      vertex 22.9301 6.95919 6
    endloop
  endfacet
  facet normal 0 0 1
    outer loop
      vertex 17.9589 8.46719 6
      vertex 17.0881 5.59638 6
      vertex 18.8294 5.06814 6
    endloop
  endfacet
  facet normal 0 0 1
    outer loop
      vertex 17.9589 8.46719 6
      vertex 16.5447 5.82143 6
      vertex 17.0881 5.59638 6
    endloop
  endfacet
  facet normal 0 0 1
    outer loop
      vertex 13.3774 10.9161 6
      vertex 16.5447 5.82143 6
      vertex 17.9589 8.46719 6
    endloop
  endfacet
  facet normal 0 0 1
    outer loop
      vertex 13.3774 10.9161 6
      vertex 11.9632 8.2703 6
      vertex 16.5447 5.82143 6
    endloop
  endfacet
  facet normal 0 0 1
    outer loop
      vertex 13.3774 10.9161 6
      vertex 11.4742 8.59703 6
      vertex 11.9632 8.2703 6
    endloop
  endfacet
  facet normal -0 0 1
    outer loop
      vertex 7.93673 11.5002 6
      vertex 13.3774 10.9161 6
      vertex 9.36167 14.2117 6
    endloop
  endfacet
  facet normal 0 0 1
    outer loop
      vertex 13.3774 10.9161 6
      vertex 7.93673 11.5002 6
      vertex 11.4742 8.59703 6
    endloop
  endfacet
  facet normal -0 0 1
    outer loop
      vertex 6.66256 12.7716 6
      vertex 7.93673 11.5002 6
      vertex 9.36167 14.2117 6
    endloop
  endfacet
  facet normal 0 0 1
    outer loop
      vertex 7.93673 11.5002 6
      vertex 6.66256 12.7716 6
      vertex 7.14748 10.7382 6
    endloop
  endfacet
  facet normal 0 0 1
    outer loop
      vertex 6.06605 18.2274 6
      vertex 6.66256 12.7716 6
      vertex 9.36167 14.2117 6
    endloop
  endfacet
  facet normal 0 0 1
    outer loop
      vertex 6.06605 18.2274 6
      vertex 3.74703 16.3242 6
      vertex 6.66256 12.7716 6
    endloop
  endfacet
  facet normal -0 0 1
    outer loop
      vertex 2 19.4704 6
      vertex 6.06605 18.2274 6
      vertex 3.61719 22.8089 6
    endloop
  endfacet
  facet normal 0 0 1
    outer loop
      vertex 6.06605 18.2274 6
      vertex 3.4203 16.8132 6
      vertex 3.74703 16.3242 6
    endloop
  endfacet
  facet normal 0 0 1
    outer loop
      vertex 2 19.4704 6
      vertex 3.61719 22.8089 6
      vertex 2.10919 27.7801 6
    endloop
  endfacet
  facet normal 0 0 1
    outer loop
      vertex 6.06605 18.2274 6
      vertex 2 19.4704 6
      vertex 3.4203 16.8132 6
    endloop
  endfacet
  facet normal 0 0 1
    outer loop
      vertex 2 19.4704 6
      vertex 2.10919 27.7801 6
      vertex 2 28.8887 6
    endloop
  endfacet
  facet normal 0 0 1
    outer loop
      vertex 49.037 12.1881 6
      vertex 52.0789 7.77592 6
      vertex 52.9347 9.3521 6
    endloop
  endfacet
  facet normal 0 0 1
    outer loop
      vertex 52.0789 7.77592 6
      vertex 49.037 12.1881 6
      vertex 47.651 10.9977 6
    endloop
  endfacet
  facet normal 0 0 1
    outer loop
      vertex 54.2 77.9 6
      vertex 51.3898 76.1 6
      vertex 54.2 76.1 6
    endloop
  endfacet
  facet normal 0 0 1
    outer loop
      vertex 51.3898 76.1 6
      vertex 49.3059 76.1 6
      vertex 50.3815 74.45 6
    endloop
  endfacet
  facet normal 0 0 1
    outer loop
      vertex 54.2 77.9 6
      vertex 49.3059 76.1 6
      vertex 51.3898 76.1 6
    endloop
  endfacet
  facet normal 0 0 1
    outer loop
      vertex 54.2 77.9 6
      vertex 39.3186 76.1 6
      vertex 49.3059 76.1 6
    endloop
  endfacet
  facet normal 0 0 1
    outer loop
      vertex 39.3186 76.1 6
      vertex 37.3705 76.1 6
      vertex 38.0535 74.45 6
    endloop
  endfacet
  facet normal 0 0 1
    outer loop
      vertex 54.2 77.9 6
      vertex 37.3705 76.1 6
      vertex 39.3186 76.1 6
    endloop
  endfacet
  facet normal 0 0 1
    outer loop
      vertex 54.2 77.9 6
      vertex 22.3695 76.1 6
      vertex 37.3705 76.1 6
    endloop
  endfacet
  facet normal 0 0 1
    outer loop
      vertex 22.3695 76.1 6
      vertex 20.5692 76.1 6
      vertex 22.0406 74.45 6
    endloop
  endfacet
  facet normal -0 0 1
    outer loop
      vertex 2 77.9 6
      vertex 22.3695 76.1 6
      vertex 54.2 77.9 6
    endloop
  endfacet
  facet normal 0 0 1
    outer loop
      vertex 22.3695 76.1 6
      vertex 2 77.9 6
      vertex 20.5692 76.1 6
    endloop
  endfacet
  facet normal 0 0 1
    outer loop
      vertex 8.3378 76.1 6
      vertex 6.53781 76.1 6
      vertex 6.74867 74.45 6
    endloop
  endfacet
  facet normal 0 0 1
    outer loop
      vertex 20.5692 76.1 6
      vertex 2 77.9 6
      vertex 8.3378 76.1 6
    endloop
  endfacet
  facet normal 0 0 1
    outer loop
      vertex 8.3378 76.1 6
      vertex 2 77.9 6
      vertex 6.53781 76.1 6
    endloop
  endfacet
  facet normal 0 0 1
    outer loop
      vertex 6.53781 76.1 6
      vertex 2 77.9 6
      vertex 2 76.1 6
    endloop
  endfacet
  facet normal -0 0 1
    outer loop
      vertex 50.3815 74.45 6
      vertex 54.2 71.45 6
      vertex 54.2 74.45 6
    endloop
  endfacet
  facet normal 0 0 1
    outer loop
      vertex 48.2976 74.45 6
      vertex 50.3815 74.45 6
      vertex 49.3059 76.1 6
    endloop
  endfacet
  facet normal -0 0 1
    outer loop
      vertex 48.2976 74.45 6
      vertex 54.2 71.45 6
      vertex 50.3815 74.45 6
    endloop
  endfacet
  facet normal -0 0 1
    outer loop
      vertex 40.0017 74.45 6
      vertex 54.2 71.45 6
      vertex 48.2976 74.45 6
    endloop
  endfacet
  facet normal 0 0 1
    outer loop
      vertex 38.0535 74.45 6
      vertex 40.0017 74.45 6
      vertex 39.3186 76.1 6
    endloop
  endfacet
  facet normal -0 0 1
    outer loop
      vertex 38.0535 74.45 6
      vertex 54.2 71.45 6
      vertex 40.0017 74.45 6
    endloop
  endfacet
  facet normal -0 0 1
    outer loop
      vertex 22.0406 74.45 6
      vertex 54.2 71.45 6
      vertex 38.0535 74.45 6
    endloop
  endfacet
  facet normal 0 0 1
    outer loop
      vertex 20.2403 74.45 6
      vertex 22.0406 74.45 6
      vertex 20.5692 76.1 6
    endloop
  endfacet
  facet normal 0 0 1
    outer loop
      vertex 2 71.45 6
      vertex 22.0406 74.45 6
      vertex 20.2403 74.45 6
    endloop
  endfacet
  facet normal 0 0 1
    outer loop
      vertex 2 71.45 6
      vertex 20.2403 74.45 6
      vertex 8.54866 74.45 6
    endloop
  endfacet
  facet normal 0 0 1
    outer loop
      vertex 6.74867 74.45 6
      vertex 8.54866 74.45 6
      vertex 8.3378 76.1 6
    endloop
  endfacet
  facet normal 0 0 1
    outer loop
      vertex 2 71.45 6
      vertex 8.54866 74.45 6
      vertex 6.74867 74.45 6
    endloop
  endfacet
  facet normal 0 0 1
    outer loop
      vertex 2 71.45 6
      vertex 6.74867 74.45 6
      vertex 2 74.45 6
    endloop
  endfacet
  facet normal 0 0 1
    outer loop
      vertex 22.0406 74.45 6
      vertex 2 71.45 6
      vertex 54.2 71.45 6
    endloop
  endfacet
  facet normal 1 -0 0
    outer loop
      vertex 56.2 73.9801 2.75
      vertex 56.2 77.9 0
      vertex 56.2 77.9 2.75
    endloop
  endfacet
  facet normal 1 0 0
    outer loop
      vertex 56.2 77.9 0
      vertex 56.2 73.9801 2.75
      vertex 56.2 73.9801 0
    endloop
  endfacet
  facet normal 1 -0 0
    outer loop
      vertex 56.2 0 2.75
      vertex 56.2 24.3985 0
      vertex 56.2 24.3985 2.75
    endloop
  endfacet
  facet normal 1 0 0
    outer loop
      vertex 56.2 24.3985 0
      vertex 56.2 0 2.75
      vertex 56.2 0 0
    endloop
  endfacet
  facet normal 0 1 -0
    outer loop
      vertex 56.2 77.9 0
      vertex 54.2 77.9 2.75
      vertex 56.2 77.9 2.75
    endloop
  endfacet
  facet normal 0 1 0
    outer loop
      vertex 54.2 77.9 2.75
      vertex 56.2 77.9 0
      vertex 2 77.9 2.75
    endloop
  endfacet
  facet normal 0 1 0
    outer loop
      vertex 0 77.9 0
      vertex 2 77.9 2.75
      vertex 56.2 77.9 0
    endloop
  endfacet
  facet normal 0 1 0
    outer loop
      vertex 2 77.9 2.75
      vertex 0 77.9 0
      vertex 0 77.9 2.75
    endloop
  endfacet
  facet normal 0 1 -0
    outer loop
      vertex 54.2 77.9 2.75
      vertex 2 77.9 6
      vertex 54.2 77.9 6
    endloop
  endfacet
  facet normal 0 1 0
    outer loop
      vertex 2 77.9 6
      vertex 54.2 77.9 2.75
      vertex 2 77.9 2.75
    endloop
  endfacet
  facet normal 1 -0 0
    outer loop
      vertex 1.8 74.45 2.75
      vertex 1.8 76.1 0
      vertex 1.8 76.1 2.75
    endloop
  endfacet
  facet normal 1 0 0
    outer loop
      vertex 1.8 76.1 0
      vertex 1.8 74.45 2.75
      vertex 1.8 74.45 0
    endloop
  endfacet
  facet normal 0 -1 0
    outer loop
      vertex 1.8 76.1 2.75
      vertex 1.8 76.1 0
      vertex 2 76.1 2.75
    endloop
  endfacet
  facet normal 0 -1 0
    outer loop
      vertex 2 76.1 2.75
      vertex 6.53781 76.1 6
      vertex 2 76.1 6
    endloop
  endfacet
  facet normal 0 -1 0
    outer loop
      vertex 6.53781 76.1 0
      vertex 2 76.1 2.75
      vertex 1.8 76.1 0
    endloop
  endfacet
  facet normal 0 -1 0
    outer loop
      vertex 2 76.1 2.75
      vertex 6.53781 76.1 0
      vertex 6.53781 76.1 6
    endloop
  endfacet
  facet normal -0.991933 -0.126763 0
    outer loop
      vertex 6.74867 74.45 0
      vertex 6.53781 76.1 6
      vertex 6.53781 76.1 0
    endloop
  endfacet
  facet normal -0.991933 -0.126763 0
    outer loop
      vertex 6.53781 76.1 6
      vertex 6.74867 74.45 0
      vertex 6.74867 74.45 6
    endloop
  endfacet
  facet normal 0.991933 0.126763 0
    outer loop
      vertex 8.54866 74.45 6
      vertex 8.3378 76.1 0
      vertex 8.3378 76.1 6
    endloop
  endfacet
  facet normal 0.991933 0.126763 0
    outer loop
      vertex 8.3378 76.1 0
      vertex 8.54866 74.45 6
      vertex 8.54866 74.45 0
    endloop
  endfacet
  facet normal 0 -1 0
    outer loop
      vertex 8.3378 76.1 0
      vertex 20.5692 76.1 6
      vertex 8.3378 76.1 6
    endloop
  endfacet
  facet normal 0 -1 -0
    outer loop
      vertex 20.5692 76.1 6
      vertex 8.3378 76.1 0
      vertex 20.5692 76.1 0
    endloop
  endfacet
  facet normal -0.980706 0.195487 0
    outer loop
      vertex 20.2403 74.45 0
      vertex 20.5692 76.1 6
      vertex 20.5692 76.1 0
    endloop
  endfacet
  facet normal -0.980706 0.195487 0
    outer loop
      vertex 20.5692 76.1 6
      vertex 20.2403 74.45 0
      vertex 20.2403 74.45 6
    endloop
  endfacet
  facet normal 0.980706 -0.195487 0
    outer loop
      vertex 22.0406 74.45 6
      vertex 22.3695 76.1 0
      vertex 22.3695 76.1 6
    endloop
  endfacet
  facet normal 0.980706 -0.195487 0
    outer loop
      vertex 22.3695 76.1 0
      vertex 22.0406 74.45 6
      vertex 22.0406 74.45 0
    endloop
  endfacet
  facet normal 0 -1 0
    outer loop
      vertex 22.3695 76.1 0
      vertex 37.3705 76.1 6
      vertex 22.3695 76.1 6
    endloop
  endfacet
  facet normal 0 -1 -0
    outer loop
      vertex 37.3705 76.1 6
      vertex 22.3695 76.1 0
      vertex 37.3705 76.1 0
    endloop
  endfacet
  facet normal -0.923969 -0.382467 0
    outer loop
      vertex 38.0535 74.45 0
      vertex 37.3705 76.1 6
      vertex 37.3705 76.1 0
    endloop
  endfacet
  facet normal -0.923969 -0.382467 0
    outer loop
      vertex 37.3705 76.1 6
      vertex 38.0535 74.45 0
      vertex 38.0535 74.45 6
    endloop
  endfacet
  facet normal 0.923949 0.382515 0
    outer loop
      vertex 40.0017 74.45 6
      vertex 39.3186 76.1 0
      vertex 39.3186 76.1 6
    endloop
  endfacet
  facet normal 0.923949 0.382515 0
    outer loop
      vertex 39.3186 76.1 0
      vertex 40.0017 74.45 6
      vertex 40.0017 74.45 0
    endloop
  endfacet
  facet normal 0 -1 0
    outer loop
      vertex 39.3186 76.1 0
      vertex 49.3059 76.1 6
      vertex 39.3186 76.1 6
    endloop
  endfacet
  facet normal 0 -1 -0
    outer loop
      vertex 49.3059 76.1 6
      vertex 39.3186 76.1 0
      vertex 49.3059 76.1 0
    endloop
  endfacet
  facet normal -0.85329 0.521437 0
    outer loop
      vertex 48.2976 74.45 0
      vertex 49.3059 76.1 6
      vertex 49.3059 76.1 0
    endloop
  endfacet
  facet normal -0.85329 0.521437 0
    outer loop
      vertex 49.3059 76.1 6
      vertex 48.2976 74.45 0
      vertex 48.2976 74.45 6
    endloop
  endfacet
  facet normal 0.85329 -0.521437 0
    outer loop
      vertex 50.3815 74.45 6
      vertex 51.3898 76.1 0
      vertex 51.3898 76.1 6
    endloop
  endfacet
  facet normal 0.85329 -0.521437 0
    outer loop
      vertex 51.3898 76.1 0
      vertex 50.3815 74.45 6
      vertex 50.3815 74.45 0
    endloop
  endfacet
  facet normal 0 -1 0
    outer loop
      vertex 51.3898 76.1 6
      vertex 54.2 76.1 2.75
      vertex 54.2 76.1 6
    endloop
  endfacet
  facet normal 0 -1 0
    outer loop
      vertex 51.3898 76.1 0
      vertex 54.2 76.1 2.75
      vertex 51.3898 76.1 6
    endloop
  endfacet
  facet normal 0 -1 0
    outer loop
      vertex 54.4 76.1 0
      vertex 54.2 76.1 2.75
      vertex 51.3898 76.1 0
    endloop
  endfacet
  facet normal 0 -1 0
    outer loop
      vertex 54.2 76.1 2.75
      vertex 54.4 76.1 0
      vertex 54.4 76.1 2.75
    endloop
  endfacet
  facet normal -1 0 0
    outer loop
      vertex 54.4 74.45 0
      vertex 54.4 76.1 2.75
      vertex 54.4 76.1 0
    endloop
  endfacet
  facet normal -1 -0 0
    outer loop
      vertex 54.4 76.1 2.75
      vertex 54.4 74.45 0
      vertex 54.4 74.45 2.75
    endloop
  endfacet
  facet normal 1 -0 0
    outer loop
      vertex 1.8 12.1817 2.75
      vertex 1.8 19.8446 0
      vertex 1.8 19.8446 2.75
    endloop
  endfacet
  facet normal 1 0 0
    outer loop
      vertex 1.8 19.8446 0
      vertex 1.8 12.1817 2.75
      vertex 1.8 12.1817 0
    endloop
  endfacet
  facet normal -0.694546 0.719448 0
    outer loop
      vertex 6.66256 12.7716 0
      vertex 5.88857 12.0244 6
      vertex 6.66256 12.7716 6
    endloop
  endfacet
  facet normal -0.694546 0.719448 0
    outer loop
      vertex 5.88857 12.0244 6
      vertex 6.66256 12.7716 0
      vertex 5.88857 12.0244 0
    endloop
  endfacet
  facet normal 0.0384433 0.999261 0
    outer loop
      vertex 5.88857 12.0244 6
      vertex 2 12.174 2.75
      vertex 2 12.174 6
    endloop
  endfacet
  facet normal 0.0384433 0.999261 -0
    outer loop
      vertex 5.88857 12.0244 0
      vertex 2 12.174 2.75
      vertex 5.88857 12.0244 6
    endloop
  endfacet
  facet normal 0.0384447 0.999261 1.95425e-06
    outer loop
      vertex 1.8 12.1817 0
      vertex 2 12.174 2.75
      vertex 5.88857 12.0244 0
    endloop
  endfacet
  facet normal 0.0384715 0.99926 0
    outer loop
      vertex 2 12.174 2.75
      vertex 1.8 12.1817 0
      vertex 1.8 12.1817 2.75
    endloop
  endfacet
  facet normal -1 0 0
    outer loop
      vertex 54.4 10.6744 0
      vertex 54.4 19.8446 2.75
      vertex 54.4 19.8446 0
    endloop
  endfacet
  facet normal -1 -0 0
    outer loop
      vertex 54.4 19.8446 2.75
      vertex 54.4 10.6744 0
      vertex 54.4 10.6744 2.75
    endloop
  endfacet
  facet normal -0.669989 0.742371 0
    outer loop
      vertex 54.4 10.6744 2.75
      vertex 54.4 10.6744 0
      vertex 54.2 10.4939 2.75
    endloop
  endfacet
  facet normal -0.669946 0.742409 0
    outer loop
      vertex 54.2 10.4939 2.75
      vertex 52.9347 9.3521 6
      vertex 54.2 10.4939 6
    endloop
  endfacet
  facet normal -0.669952 0.742404 4.90996e-06
    outer loop
      vertex 52.9347 9.3521 0
      vertex 54.2 10.4939 2.75
      vertex 54.4 10.6744 0
    endloop
  endfacet
  facet normal -0.669946 0.742409 0
    outer loop
      vertex 54.2 10.4939 2.75
      vertex 52.9347 9.3521 0
      vertex 52.9347 9.3521 6
    endloop
  endfacet
  facet normal 0.588349 0.808607 -0
    outer loop
      vertex 52.9347 9.3521 0
      vertex 49.037 12.1881 6
      vertex 52.9347 9.3521 6
    endloop
  endfacet
  facet normal 0.588349 0.808607 0
    outer loop
      vertex 49.037 12.1881 6
      vertex 52.9347 9.3521 0
      vertex 49.037 12.1881 0
    endloop
  endfacet
  facet normal 0.695091 0.718922 -0
    outer loop
      vertex 38.3687 1.8 0
      vertex 37.8115 2.33873 6
      vertex 38.3687 1.8 6
    endloop
  endfacet
  facet normal 0.695091 0.718922 0
    outer loop
      vertex 37.8115 2.33873 6
      vertex 38.3687 1.8 0
      vertex 37.8115 2.33873 0
    endloop
  endfacet
  facet normal 0.995392 0.0958941 0
    outer loop
      vertex 37.8115 2.33873 6
      vertex 37.5435 5.1206 0
      vertex 37.5435 5.1206 6
    endloop
  endfacet
  facet normal 0.995392 0.0958941 0
    outer loop
      vertex 37.5435 5.1206 0
      vertex 37.8115 2.33873 6
      vertex 37.8115 2.33873 0
    endloop
  endfacet
  facet normal -0.58835 -0.808607 0
    outer loop
      vertex 47.651 10.9977 0
      vertex 52.0789 7.77592 6
      vertex 47.651 10.9977 6
    endloop
  endfacet
  facet normal -0.58835 -0.808607 -0
    outer loop
      vertex 52.0789 7.77592 6
      vertex 47.651 10.9977 0
      vertex 52.0789 7.77592 0
    endloop
  endfacet
  facet normal -0.998411 0.0563535 0
    outer loop
      vertex 51.7416 1.8 0
      vertex 52.0789 7.77592 6
      vertex 52.0789 7.77592 0
    endloop
  endfacet
  facet normal -0.998411 0.0563535 0
    outer loop
      vertex 52.0789 7.77592 6
      vertex 51.7416 1.8 0
      vertex 51.7416 1.8 6
    endloop
  endfacet
  facet normal 0 1 -0
    outer loop
      vertex 51.7416 1.8 0
      vertex 38.3687 1.8 6
      vertex 51.7416 1.8 6
    endloop
  endfacet
  facet normal 0 1 0
    outer loop
      vertex 38.3687 1.8 6
      vertex 51.7416 1.8 0
      vertex 38.3687 1.8 0
    endloop
  endfacet
  facet normal 0.999676 0.0254622 0
    outer loop
      vertex 7.37514 1.8 6
      vertex 7.14748 10.7382 0
      vertex 7.14748 10.7382 6
    endloop
  endfacet
  facet normal 0.999676 0.0254622 0
    outer loop
      vertex 7.14748 10.7382 0
      vertex 7.37514 1.8 6
      vertex 7.37514 1.8 0
    endloop
  endfacet
  facet normal 0.694578 -0.719417 0
    outer loop
      vertex 7.14748 10.7382 0
      vertex 7.93673 11.5002 6
      vertex 7.14748 10.7382 6
    endloop
  endfacet
  facet normal 0.694578 -0.719417 0
    outer loop
      vertex 7.93673 11.5002 6
      vertex 7.14748 10.7382 0
      vertex 7.93673 11.5002 0
    endloop
  endfacet
  facet normal -0.999547 -0.0300952 0
    outer loop
      vertex 18.9278 1.8 0
      vertex 18.8294 5.06814 6
      vertex 18.8294 5.06814 0
    endloop
  endfacet
  facet normal -0.999547 -0.0300952 0
    outer loop
      vertex 18.8294 5.06814 6
      vertex 18.9278 1.8 0
      vertex 18.9278 1.8 6
    endloop
  endfacet
  facet normal 0 1 -0
    outer loop
      vertex 18.9278 1.8 0
      vertex 7.37514 1.8 6
      vertex 18.9278 1.8 6
    endloop
  endfacet
  facet normal 0 1 0
    outer loop
      vertex 7.37514 1.8 6
      vertex 18.9278 1.8 0
      vertex 7.37514 1.8 0
    endloop
  endfacet
  facet normal 1 -0 0
    outer loop
      vertex 1.8 1.8 2.75
      vertex 1.8 10.3817 0
      vertex 1.8 10.3817 2.75
    endloop
  endfacet
  facet normal 1 0 0
    outer loop
      vertex 1.8 10.3817 0
      vertex 1.8 1.8 2.75
      vertex 1.8 1.8 0
    endloop
  endfacet
  facet normal -0.0379726 -0.999279 -0
    outer loop
      vertex 1.8 10.3817 2.75
      vertex 1.8 10.3817 0
      vertex 2 10.3741 2.75
    endloop
  endfacet
  facet normal -0.038453 -0.99926 0
    outer loop
      vertex 2 10.3741 2.75
      vertex 5.36006 10.2448 6
      vertex 2 10.3741 6
    endloop
  endfacet
  facet normal -0.038426 -0.999261 3.30235e-05
    outer loop
      vertex 5.36006 10.2448 0
      vertex 2 10.3741 2.75
      vertex 1.8 10.3817 0
    endloop
  endfacet
  facet normal -0.038453 -0.99926 0
    outer loop
      vertex 2 10.3741 2.75
      vertex 5.36006 10.2448 0
      vertex 5.36006 10.2448 6
    endloop
  endfacet
  facet normal -0.999676 -0.0254619 0
    outer loop
      vertex 5.57515 1.8 0
      vertex 5.36006 10.2448 6
      vertex 5.36006 10.2448 0
    endloop
  endfacet
  facet normal -0.999676 -0.0254619 0
    outer loop
      vertex 5.36006 10.2448 6
      vertex 5.57515 1.8 0
      vertex 5.57515 1.8 6
    endloop
  endfacet
  facet normal 0 1 0
    outer loop
      vertex 5.57515 1.8 6
      vertex 2 1.8 2.75
      vertex 2 1.8 6
    endloop
  endfacet
  facet normal 0 1 -0
    outer loop
      vertex 5.57515 1.8 0
      vertex 2 1.8 2.75
      vertex 5.57515 1.8 6
    endloop
  endfacet
  facet normal 0 1 0
    outer loop
      vertex 1.8 1.8 0
      vertex 2 1.8 2.75
      vertex 5.57515 1.8 0
    endloop
  endfacet
  facet normal 0 1 0
    outer loop
      vertex 2 1.8 2.75
      vertex 1.8 1.8 0
      vertex 1.8 1.8 2.75
    endloop
  endfacet
  facet normal 0.999547 0.0300922 0
    outer loop
      vertex 20.7278 1.8 6
      vertex 20.646 4.51708 0
      vertex 20.646 4.51708 6
    endloop
  endfacet
  facet normal 0.999547 0.0300922 0
    outer loop
      vertex 20.646 4.51708 0
      vertex 20.7278 1.8 6
      vertex 20.7278 1.8 0
    endloop
  endfacet
  facet normal -0.995394 -0.0958707 0
    outer loop
      vertex 35.9966 2.49278 0
      vertex 35.7946 4.59008 6
      vertex 35.7946 4.59008 0
    endloop
  endfacet
  facet normal -0.995394 -0.0958707 0
    outer loop
      vertex 35.7946 4.59008 6
      vertex 35.9966 2.49278 0
      vertex 35.9966 2.49278 6
    endloop
  endfacet
  facet normal -0.387347 0.921934 0
    outer loop
      vertex 35.9966 2.49278 0
      vertex 34.3477 1.8 6
      vertex 35.9966 2.49278 6
    endloop
  endfacet
  facet normal -0.387347 0.921934 0
    outer loop
      vertex 34.3477 1.8 6
      vertex 35.9966 2.49278 0
      vertex 34.3477 1.8 0
    endloop
  endfacet
  facet normal 0 1 -0
    outer loop
      vertex 34.3477 1.8 0
      vertex 20.7278 1.8 6
      vertex 34.3477 1.8 6
    endloop
  endfacet
  facet normal 0 1 0
    outer loop
      vertex 20.7278 1.8 6
      vertex 34.3477 1.8 0
      vertex 20.7278 1.8 0
    endloop
  endfacet
  facet normal 0.998411 -0.0563526 0
    outer loop
      vertex 53.5416 1.8 6
      vertex 53.8793 7.7831 0
      vertex 53.8793 7.7831 6
    endloop
  endfacet
  facet normal 0.998411 -0.0563526 0
    outer loop
      vertex 53.8793 7.7831 0
      vertex 53.5416 1.8 6
      vertex 53.5416 1.8 0
    endloop
  endfacet
  facet normal 0.669962 -0.742396 0
    outer loop
      vertex 53.8793 7.7831 6
      vertex 54.2 8.07251 2.75
      vertex 54.2 8.07251 6
    endloop
  endfacet
  facet normal 0.669962 -0.742396 0
    outer loop
      vertex 53.8793 7.7831 0
      vertex 54.2 8.07251 2.75
      vertex 53.8793 7.7831 6
    endloop
  endfacet
  facet normal 0.669957 -0.7424 1.07011e-06
    outer loop
      vertex 54.4 8.25299 0
      vertex 54.2 8.07251 2.75
      vertex 53.8793 7.7831 0
    endloop
  endfacet
  facet normal 0.669949 -0.742408 0
    outer loop
      vertex 54.2 8.07251 2.75
      vertex 54.4 8.25299 0
      vertex 54.4 8.25299 2.75
    endloop
  endfacet
  facet normal -1 0 0
    outer loop
      vertex 54.4 1.8 0
      vertex 54.4 8.25299 2.75
      vertex 54.4 8.25299 0
    endloop
  endfacet
  facet normal -1 -0 0
    outer loop
      vertex 54.4 8.25299 2.75
      vertex 54.4 1.8 0
      vertex 54.4 1.8 2.75
    endloop
  endfacet
  facet normal 0 1 0
    outer loop
      vertex 54.4 1.8 2.75
      vertex 54.4 1.8 0
      vertex 54.2 1.8 2.75
    endloop
  endfacet
  facet normal 0 1 -0
    outer loop
      vertex 54.2 1.8 2.75
      vertex 53.5416 1.8 6
      vertex 54.2 1.8 6
    endloop
  endfacet
  facet normal 0 1 0
    outer loop
      vertex 53.5416 1.8 0
      vertex 54.2 1.8 2.75
      vertex 54.4 1.8 0
    endloop
  endfacet
  facet normal 0 1 0
    outer loop
      vertex 54.2 1.8 2.75
      vertex 53.5416 1.8 0
      vertex 53.5416 1.8 6
    endloop
  endfacet
  facet normal 0.290282 -0.956941 0
    outer loop
      vertex 34.1407 4.08838 0
      vertex 35.7946 4.59008 6
      vertex 34.1407 4.08838 6
    endloop
  endfacet
  facet normal 0.290282 -0.956941 0
    outer loop
      vertex 35.7946 4.59008 6
      vertex 34.1407 4.08838 0
      vertex 35.7946 4.59008 0
    endloop
  endfacet
  facet normal 0.290291 -0.956938 0
    outer loop
      vertex 37.5435 5.1206 0
      vertex 39.1119 5.59638 6
      vertex 37.5435 5.1206 6
    endloop
  endfacet
  facet normal 0.290291 -0.956938 0
    outer loop
      vertex 39.1119 5.59638 6
      vertex 37.5435 5.1206 0
      vertex 39.1119 5.59638 0
    endloop
  endfacet
  facet normal 0.195086 -0.980786 0
    outer loop
      vertex 33.5639 3.97365 0
      vertex 34.1407 4.08838 6
      vertex 33.5639 3.97365 6
    endloop
  endfacet
  facet normal 0.195086 -0.980786 0
    outer loop
      vertex 34.1407 4.08838 6
      vertex 33.5639 3.97365 0
      vertex 34.1407 4.08838 0
    endloop
  endfacet
  facet normal 0 1 0
    outer loop
      vertex 6.74867 74.45 6
      vertex 2 74.45 2.75
      vertex 2 74.45 6
    endloop
  endfacet
  facet normal 0 1 -0
    outer loop
      vertex 6.74867 74.45 0
      vertex 2 74.45 2.75
      vertex 6.74867 74.45 6
    endloop
  endfacet
  facet normal 0 1 0
    outer loop
      vertex 1.8 74.45 0
      vertex 2 74.45 2.75
      vertex 6.74867 74.45 0
    endloop
  endfacet
  facet normal 0 1 0
    outer loop
      vertex 2 74.45 2.75
      vertex 1.8 74.45 0
      vertex 1.8 74.45 2.75
    endloop
  endfacet
  facet normal 0 1 -0
    outer loop
      vertex 20.2403 74.45 0
      vertex 8.54866 74.45 6
      vertex 20.2403 74.45 6
    endloop
  endfacet
  facet normal 0 1 0
    outer loop
      vertex 8.54866 74.45 6
      vertex 20.2403 74.45 0
      vertex 8.54866 74.45 0
    endloop
  endfacet
  facet normal 0 1 -0
    outer loop
      vertex 38.0535 74.45 0
      vertex 22.0406 74.45 6
      vertex 38.0535 74.45 6
    endloop
  endfacet
  facet normal 0 1 0
    outer loop
      vertex 22.0406 74.45 6
      vertex 38.0535 74.45 0
      vertex 22.0406 74.45 0
    endloop
  endfacet
  facet normal 0 1 -0
    outer loop
      vertex 48.2976 74.45 0
      vertex 40.0017 74.45 6
      vertex 48.2976 74.45 6
    endloop
  endfacet
  facet normal 0 1 0
    outer loop
      vertex 40.0017 74.45 6
      vertex 48.2976 74.45 0
      vertex 40.0017 74.45 0
    endloop
  endfacet
  facet normal 0 1 0
    outer loop
      vertex 54.4 74.45 2.75
      vertex 54.4 74.45 0
      vertex 54.2 74.45 2.75
    endloop
  endfacet
  facet normal 0 1 -0
    outer loop
      vertex 54.2 74.45 2.75
      vertex 50.3815 74.45 6
      vertex 54.2 74.45 6
    endloop
  endfacet
  facet normal 0 1 0
    outer loop
      vertex 50.3815 74.45 0
      vertex 54.2 74.45 2.75
      vertex 54.4 74.45 0
    endloop
  endfacet
  facet normal 0 1 0
    outer loop
      vertex 54.2 74.45 2.75
      vertex 50.3815 74.45 0
      vertex 50.3815 74.45 6
    endloop
  endfacet
  facet normal 0.634397 -0.773008 0
    outer loop
      vertex 44.7258 8.59703 0
      vertex 47.651 10.9977 6
      vertex 44.7258 8.59703 6
    endloop
  endfacet
  facet normal 0.634397 -0.773008 0
    outer loop
      vertex 47.651 10.9977 6
      vertex 44.7258 8.59703 0
      vertex 47.651 10.9977 0
    endloop
  endfacet
  facet normal -0.382635 -0.9239 0
    outer loop
      vertex 16.5447 5.82143 0
      vertex 17.0881 5.59638 6
      vertex 16.5447 5.82143 6
    endloop
  endfacet
  facet normal -0.382635 -0.9239 -0
    outer loop
      vertex 17.0881 5.59638 6
      vertex 16.5447 5.82143 0
      vertex 17.0881 5.59638 0
    endloop
  endfacet
  facet normal -0.471398 -0.881921 0
    outer loop
      vertex 11.9632 8.2703 0
      vertex 16.5447 5.82143 6
      vertex 11.9632 8.2703 6
    endloop
  endfacet
  facet normal -0.471398 -0.881921 -0
    outer loop
      vertex 16.5447 5.82143 6
      vertex 11.9632 8.2703 0
      vertex 16.5447 5.82143 0
    endloop
  endfacet
  facet normal -0.881935 -0.471371 0
    outer loop
      vertex 1.8 19.8446 0
      vertex 2 19.4704 2.75
      vertex 1.8 19.8446 2.75
    endloop
  endfacet
  facet normal -0.881923 -0.471393 -3.83604e-06
    outer loop
      vertex 3.4203 16.8132 0
      vertex 2 19.4704 2.75
      vertex 1.8 19.8446 0
    endloop
  endfacet
  facet normal -0.881922 -0.471396 -0
    outer loop
      vertex 3.4203 16.8132 6
      vertex 2 19.4704 2.75
      vertex 3.4203 16.8132 0
    endloop
  endfacet
  facet normal -0.881922 -0.471396 0
    outer loop
      vertex 2 19.4704 2.75
      vertex 3.4203 16.8132 6
      vertex 2 19.4704 6
    endloop
  endfacet
  facet normal -0.773012 -0.634392 0
    outer loop
      vertex 6.66256 12.7716 0
      vertex 3.74703 16.3242 6
      vertex 3.74703 16.3242 0
    endloop
  endfacet
  facet normal -0.773012 -0.634392 0
    outer loop
      vertex 3.74703 16.3242 6
      vertex 6.66256 12.7716 0
      vertex 6.66256 12.7716 6
    endloop
  endfacet
  facet normal -0.555559 -0.831477 0
    outer loop
      vertex 11.4742 8.59703 0
      vertex 11.9632 8.2703 6
      vertex 11.4742 8.59703 6
    endloop
  endfacet
  facet normal -0.555559 -0.831477 -0
    outer loop
      vertex 11.9632 8.2703 6
      vertex 11.4742 8.59703 0
      vertex 11.9632 8.2703 0
    endloop
  endfacet
  facet normal -0.0980208 -0.995184 0
    outer loop
      vertex 22.6361 3.97365 0
      vertex 27.8059 3.46445 6
      vertex 22.6361 3.97365 6
    endloop
  endfacet
  facet normal -0.0980208 -0.995184 -0
    outer loop
      vertex 27.8059 3.46445 6
      vertex 22.6361 3.97365 0
      vertex 27.8059 3.46445 0
    endloop
  endfacet
  facet normal -0.195086 -0.980786 0
    outer loop
      vertex 22.0593 4.08838 0
      vertex 22.6361 3.97365 6
      vertex 22.0593 4.08838 6
    endloop
  endfacet
  facet normal -0.195086 -0.980786 -0
    outer loop
      vertex 22.6361 3.97365 6
      vertex 22.0593 4.08838 0
      vertex 22.6361 3.97365 0
    endloop
  endfacet
  facet normal 0 -1 0
    outer loop
      vertex 27.8059 3.46445 0
      vertex 28.3941 3.46445 6
      vertex 27.8059 3.46445 6
    endloop
  endfacet
  facet normal 0 -1 -0
    outer loop
      vertex 28.3941 3.46445 6
      vertex 27.8059 3.46445 0
      vertex 28.3941 3.46445 0
    endloop
  endfacet
  facet normal 0.77301 -0.634393 0
    outer loop
      vertex 49.1574 12.3085 6
      vertex 52.453 16.3242 0
      vertex 52.453 16.3242 6
    endloop
  endfacet
  facet normal 0.77301 -0.634393 0
    outer loop
      vertex 52.453 16.3242 0
      vertex 49.1574 12.3085 6
      vertex 49.1574 12.3085 0
    endloop
  endfacet
  facet normal 0.707107 -0.707107 0
    outer loop
      vertex 49.037 12.1881 0
      vertex 49.1574 12.3085 6
      vertex 49.037 12.1881 6
    endloop
  endfacet
  facet normal 0.707107 -0.707107 0
    outer loop
      vertex 49.1574 12.3085 6
      vertex 49.037 12.1881 0
      vertex 49.1574 12.3085 0
    endloop
  endfacet
  facet normal 0.382635 -0.9239 0
    outer loop
      vertex 39.1119 5.59638 0
      vertex 39.6553 5.82143 6
      vertex 39.1119 5.59638 6
    endloop
  endfacet
  facet normal 0.382635 -0.9239 0
    outer loop
      vertex 39.6553 5.82143 6
      vertex 39.1119 5.59638 0
      vertex 39.6553 5.82143 0
    endloop
  endfacet
  facet normal -0.831477 -0.555559 0
    outer loop
      vertex 3.74703 16.3242 0
      vertex 3.4203 16.8132 6
      vertex 3.4203 16.8132 0
    endloop
  endfacet
  facet normal -0.831477 -0.555559 0
    outer loop
      vertex 3.4203 16.8132 6
      vertex 3.74703 16.3242 0
      vertex 3.74703 16.3242 6
    endloop
  endfacet
  facet normal -0.634399 -0.773006 0
    outer loop
      vertex 7.93673 11.5002 0
      vertex 11.4742 8.59703 6
      vertex 7.93673 11.5002 6
    endloop
  endfacet
  facet normal -0.634399 -0.773006 -0
    outer loop
      vertex 11.4742 8.59703 6
      vertex 7.93673 11.5002 0
      vertex 11.4742 8.59703 0
    endloop
  endfacet
  facet normal -0.290272 -0.956944 0
    outer loop
      vertex 20.646 4.51708 0
      vertex 22.0593 4.08838 6
      vertex 20.646 4.51708 6
    endloop
  endfacet
  facet normal -0.290272 -0.956944 -0
    outer loop
      vertex 22.0593 4.08838 6
      vertex 20.646 4.51708 0
      vertex 22.0593 4.08838 0
    endloop
  endfacet
  facet normal -0.290296 -0.956937 0
    outer loop
      vertex 17.0881 5.59638 0
      vertex 18.8294 5.06814 6
      vertex 17.0881 5.59638 6
    endloop
  endfacet
  facet normal -0.290296 -0.956937 -0
    outer loop
      vertex 18.8294 5.06814 6
      vertex 17.0881 5.59638 0
      vertex 18.8294 5.06814 0
    endloop
  endfacet
  facet normal 0.0980208 -0.995184 0
    outer loop
      vertex 28.3941 3.46445 0
      vertex 33.5639 3.97365 6
      vertex 28.3941 3.46445 6
    endloop
  endfacet
  facet normal 0.0980208 -0.995184 0
    outer loop
      vertex 33.5639 3.97365 6
      vertex 28.3941 3.46445 0
      vertex 33.5639 3.97365 0
    endloop
  endfacet
  facet normal 0.831501 -0.555524 0
    outer loop
      vertex 52.453 16.3242 6
      vertex 52.7797 16.8132 0
      vertex 52.7797 16.8132 6
    endloop
  endfacet
  facet normal 0.831501 -0.555524 0
    outer loop
      vertex 52.7797 16.8132 0
      vertex 52.453 16.3242 6
      vertex 52.453 16.3242 0
    endloop
  endfacet
  facet normal 0.471398 -0.881921 0
    outer loop
      vertex 39.6553 5.82143 0
      vertex 44.2368 8.2703 6
      vertex 39.6553 5.82143 6
    endloop
  endfacet
  facet normal 0.471398 -0.881921 0
    outer loop
      vertex 44.2368 8.2703 6
      vertex 39.6553 5.82143 0
      vertex 44.2368 8.2703 0
    endloop
  endfacet
  facet normal 0.881922 -0.471396 0
    outer loop
      vertex 54.2 19.4704 6
      vertex 52.7797 16.8132 6
      vertex 54.2 19.4704 2.75
    endloop
  endfacet
  facet normal 0.881935 -0.471371 0
    outer loop
      vertex 54.2 19.4704 2.75
      vertex 54.4 19.8446 0
      vertex 54.4 19.8446 2.75
    endloop
  endfacet
  facet normal 0.881922 -0.471396 0
    outer loop
      vertex 52.7797 16.8132 0
      vertex 54.2 19.4704 2.75
      vertex 52.7797 16.8132 6
    endloop
  endfacet
  facet normal 0.881923 -0.471393 -3.83604e-06
    outer loop
      vertex 54.2 19.4704 2.75
      vertex 52.7797 16.8132 0
      vertex 54.4 19.8446 0
    endloop
  endfacet
  facet normal 0.555559 -0.831477 0
    outer loop
      vertex 44.2368 8.2703 0
      vertex 44.7258 8.59703 6
      vertex 44.2368 8.2703 6
    endloop
  endfacet
  facet normal 0.555559 -0.831477 0
    outer loop
      vertex 44.7258 8.59703 6
      vertex 44.2368 8.2703 0
      vertex 44.7258 8.59703 0
    endloop
  endfacet
  facet normal 0.95694 0.290285 0
    outer loop
      vertex 3.61719 22.8089 6
      vertex 2.10919 27.7801 0
      vertex 2.10919 27.7801 6
    endloop
  endfacet
  facet normal 0.95694 0.290285 0
    outer loop
      vertex 2.10919 27.7801 0
      vertex 3.61719 22.8089 6
      vertex 3.61719 22.8089 0
    endloop
  endfacet
  facet normal 1 -0 0
    outer loop
      vertex 1.6 32.95 2.75
      vertex 1.6 71.45 0
      vertex 1.6 71.45 2.75
    endloop
  endfacet
  facet normal 1 0 0
    outer loop
      vertex 1.6 71.45 0
      vertex 1.6 32.95 2.75
      vertex 1.6 32.95 0
    endloop
  endfacet
  facet normal 0.995185 0.0980193 0
    outer loop
      vertex 2 28.8887 6
      vertex 2.10919 27.7801 6
      vertex 2 28.8887 2.75
    endloop
  endfacet
  facet normal 0.995185 0.0980164 0
    outer loop
      vertex 2 28.8887 2.75
      vertex 1.6 32.95 0
      vertex 1.6 32.95 2.75
    endloop
  endfacet
  facet normal 0.995185 0.098017 9.3427e-07
    outer loop
      vertex 2 28.8887 2.75
      vertex 2.10919 27.7801 0
      vertex 1.6 32.95 0
    endloop
  endfacet
  facet normal 0.995185 0.0980193 -0
    outer loop
      vertex 2.10919 27.7801 0
      vertex 2 28.8887 2.75
      vertex 2.10919 27.7801 6
    endloop
  endfacet
  facet normal 0 -1 0
    outer loop
      vertex 1.6 71.45 0
      vertex 2 71.45 2.75
      vertex 1.6 71.45 2.75
    endloop
  endfacet
  facet normal 0 -1 -0
    outer loop
      vertex 2 71.45 2.75
      vertex 1.6 71.45 0
      vertex 54.2 71.45 2.75
    endloop
  endfacet
  facet normal 0 -1 0
    outer loop
      vertex 54.6 71.45 0
      vertex 54.2 71.45 2.75
      vertex 1.6 71.45 0
    endloop
  endfacet
  facet normal 0 -1 0
    outer loop
      vertex 54.2 71.45 2.75
      vertex 54.6 71.45 0
      vertex 54.6 71.45 2.75
    endloop
  endfacet
  facet normal 0 -1 0
    outer loop
      vertex 2 71.45 2.75
      vertex 54.2 71.45 6
      vertex 2 71.45 6
    endloop
  endfacet
  facet normal 0 -1 -0
    outer loop
      vertex 54.2 71.45 6
      vertex 2 71.45 2.75
      vertex 54.2 71.45 2.75
    endloop
  endfacet
  facet normal -1 0 0
    outer loop
      vertex 54.6 32.95 0
      vertex 54.6 71.45 2.75
      vertex 54.6 71.45 0
    endloop
  endfacet
  facet normal -1 -0 0
    outer loop
      vertex 54.6 71.45 2.75
      vertex 54.6 32.95 0
      vertex 54.6 32.95 2.75
    endloop
  endfacet
  facet normal -0.471404 0.881917 0
    outer loop
      vertex 42.8226 10.9161 0
      vertex 38.2411 8.46719 6
      vertex 42.8226 10.9161 6
    endloop
  endfacet
  facet normal -0.471404 0.881917 0
    outer loop
      vertex 38.2411 8.46719 6
      vertex 42.8226 10.9161 0
      vertex 38.2411 8.46719 0
    endloop
  endfacet
  facet normal -0.95694 0.290285 0
    outer loop
      vertex 52.5828 22.8089 0
      vertex 54.0908 27.7801 6
      vertex 54.0908 27.7801 0
    endloop
  endfacet
  facet normal -0.95694 0.290285 0
    outer loop
      vertex 54.0908 27.7801 6
      vertex 52.5828 22.8089 0
      vertex 52.5828 22.8089 6
    endloop
  endfacet
  facet normal -0.995185 0.0980164 0
    outer loop
      vertex 54.6 32.95 0
      vertex 54.2 28.8887 2.75
      vertex 54.6 32.95 2.75
    endloop
  endfacet
  facet normal -0.995185 0.0980189 3.77712e-06
    outer loop
      vertex 54.0908 27.7801 0
      vertex 54.2 28.8887 2.75
      vertex 54.6 32.95 0
    endloop
  endfacet
  facet normal -0.995184 0.0980282 0
    outer loop
      vertex 54.0908 27.7801 6
      vertex 54.2 28.8887 2.75
      vertex 54.0908 27.7801 0
    endloop
  endfacet
  facet normal -0.995184 0.0980282 0
    outer loop
      vertex 54.2 28.8887 2.75
      vertex 54.0908 27.7801 6
      vertex 54.2 28.8887 6
    endloop
  endfacet
  facet normal 0.63439 0.773013 -0
    outer loop
      vertex 13.3774 10.9161 0
      vertex 9.36167 14.2117 6
      vertex 13.3774 10.9161 6
    endloop
  endfacet
  facet normal 0.63439 0.773013 0
    outer loop
      vertex 9.36167 14.2117 6
      vertex 13.3774 10.9161 0
      vertex 9.36167 14.2117 0
    endloop
  endfacet
  facet normal -0.77301 0.634393 0
    outer loop
      vertex 46.8383 14.2117 0
      vertex 50.1339 18.2274 6
      vertex 50.1339 18.2274 0
    endloop
  endfacet
  facet normal -0.77301 0.634393 0
    outer loop
      vertex 50.1339 18.2274 6
      vertex 46.8383 14.2117 0
      vertex 46.8383 14.2117 6
    endloop
  endfacet
  facet normal -0.881918 0.471402 0
    outer loop
      vertex 50.1339 18.2274 0
      vertex 52.5828 22.8089 6
      vertex 52.5828 22.8089 0
    endloop
  endfacet
  facet normal -0.881918 0.471402 0
    outer loop
      vertex 52.5828 22.8089 6
      vertex 50.1339 18.2274 0
      vertex 50.1339 18.2274 6
    endloop
  endfacet
  facet normal -0.634393 0.77301 0
    outer loop
      vertex 46.8383 14.2117 0
      vertex 42.8226 10.9161 6
      vertex 46.8383 14.2117 6
    endloop
  endfacet
  facet normal -0.634393 0.77301 0
    outer loop
      vertex 42.8226 10.9161 6
      vertex 46.8383 14.2117 0
      vertex 42.8226 10.9161 0
    endloop
  endfacet
  facet normal 0.098017 0.995185 -0
    outer loop
      vertex 28.1 6.45 0
      vertex 22.9301 6.95919 6
      vertex 28.1 6.45 6
    endloop
  endfacet
  facet normal 0.098017 0.995185 0
    outer loop
      vertex 22.9301 6.95919 6
      vertex 28.1 6.45 0
      vertex 22.9301 6.95919 0
    endloop
  endfacet
  facet normal 0.471404 0.881917 -0
    outer loop
      vertex 17.9589 8.46719 0
      vertex 13.3774 10.9161 6
      vertex 17.9589 8.46719 6
    endloop
  endfacet
  facet normal 0.471404 0.881917 0
    outer loop
      vertex 13.3774 10.9161 6
      vertex 17.9589 8.46719 0
      vertex 13.3774 10.9161 0
    endloop
  endfacet
  facet normal 0.881921 0.471396 0
    outer loop
      vertex 6.06605 18.2274 6
      vertex 3.61719 22.8089 0
      vertex 3.61719 22.8089 6
    endloop
  endfacet
  facet normal 0.881921 0.471396 0
    outer loop
      vertex 3.61719 22.8089 0
      vertex 6.06605 18.2274 6
      vertex 6.06605 18.2274 0
    endloop
  endfacet
  facet normal -0.290285 0.95694 0
    outer loop
      vertex 38.2411 8.46719 0
      vertex 33.2699 6.95919 6
      vertex 38.2411 8.46719 6
    endloop
  endfacet
  facet normal -0.290285 0.95694 0
    outer loop
      vertex 33.2699 6.95919 6
      vertex 38.2411 8.46719 0
      vertex 33.2699 6.95919 0
    endloop
  endfacet
  facet normal 0.773009 0.634396 0
    outer loop
      vertex 9.36167 14.2117 6
      vertex 6.06605 18.2274 0
      vertex 6.06605 18.2274 6
    endloop
  endfacet
  facet normal 0.773009 0.634396 0
    outer loop
      vertex 6.06605 18.2274 0
      vertex 9.36167 14.2117 6
      vertex 9.36167 14.2117 0
    endloop
  endfacet
  facet normal 0.290285 0.95694 -0
    outer loop
      vertex 22.9301 6.95919 0
      vertex 17.9589 8.46719 6
      vertex 22.9301 6.95919 6
    endloop
  endfacet
  facet normal 0.290285 0.95694 0
    outer loop
      vertex 17.9589 8.46719 6
      vertex 22.9301 6.95919 0
      vertex 17.9589 8.46719 0
    endloop
  endfacet
  facet normal -0.098017 0.995185 0
    outer loop
      vertex 33.2699 6.95919 0
      vertex 28.1 6.45 6
      vertex 33.2699 6.95919 6
    endloop
  endfacet
  facet normal -0.098017 0.995185 0
    outer loop
      vertex 28.1 6.45 6
      vertex 33.2699 6.95919 0
      vertex 28.1 6.45 0
    endloop
  endfacet
endsolid OpenSCAD_Model
